# xmcd
#
# Track frame offsets:
#	150
#	17371
#	32771
#	48196
#	60493
#	76298
#	94458
#	113485
#	129698
#	145192
#
# Disc length: 2144 seconds
#
# Revision: 0
# Processed by: cddbd v1.5.2PL0 Copyright (c) Steve Scherf et al.
# Submitted via: EZCDAudioConverter 7.1.0.1
#
DISCID=78085e0a
DTITLE=Various Artist - Piano Tribute To Lady Antebellum
DYEAR=2010
DGENRE=Country
TTITLE0=Just A Kiss
TTITLE1=Need You Now
TTITLE2=American Honey
TTITLE3=We Owned The Night
TTITLE4=Dancin' Away With My Heart
TTITLE5=I Run To You
TTITLE6=Hello World
TTITLE7=Our Kind Of Love
TTITLE8=When You Got A Good Thing
TTITLE9=Lookin' For A Good Time
EXTD=
EXTT0=
EXTT1=
EXTT2=
EXTT3=
EXTT4=
EXTT5=
EXTT6=
EXTT7=
EXTT8=
EXTT9=
PLAYORDER=
